<svg width="170" height="139" viewBox="0 0 170 139" fill="none" xmlns="http://www.w3.org/2000/svg">
<path d="M84.6429 138.961C119.049 138.961 146.94 133.75 146.94 127.321C146.94 120.892 119.049 115.681 84.6429 115.681C50.2371 115.681 22.3457 120.892 22.3457 127.321C22.3457 133.75 50.2371 138.961 84.6429 138.961Z" fill="#F5F5F7" fill-opacity="0.8"/>
<path fill-rule="evenodd" clip-rule="evenodd" d="M134.481 93.1243L112.497 66.0679C111.442 64.7944 109.9 64.0234 108.276 64.0234H61.0094C59.3866 64.0234 57.8447 64.7944 56.7899 66.0679L34.8066 93.1243V107.259H134.482V93.1243H134.481Z" fill="#AEB8C2"/>
<path fill-rule="evenodd" clip-rule="evenodd" d="M53.4314 29.1016H115.853C116.828 29.1016 117.763 29.4888 118.452 30.1781C119.142 30.8674 119.529 31.8023 119.529 32.7771V118.549C119.529 119.524 119.142 120.458 118.452 121.148C117.763 121.837 116.828 122.224 115.853 122.224H53.4314C52.4566 122.224 51.5217 121.837 50.8324 121.148C50.1431 120.458 49.7559 119.524 49.7559 118.549V32.7771C49.7559 31.8023 50.1431 30.8674 50.8324 30.1781C51.5217 29.4888 52.4566 29.1016 53.4314 29.1016V29.1016Z" fill="#F5F5F7"/>
<path fill-rule="evenodd" clip-rule="evenodd" d="M61.5615 38.2471H107.723C108.211 38.2471 108.678 38.4407 109.023 38.7853C109.367 39.13 109.561 39.5974 109.561 40.0848V63.0173C109.561 63.5047 109.367 63.9721 109.023 64.3167C108.678 64.6614 108.211 64.855 107.723 64.855H61.5615C61.0741 64.855 60.6066 64.6614 60.262 64.3167C59.9174 63.9721 59.7237 63.5047 59.7237 63.0173V40.0848C59.7237 39.5974 59.9174 39.13 60.262 38.7853C60.6066 38.4407 61.0741 38.2471 61.5615 38.2471V38.2471ZM61.8022 74.8313H107.482C108.034 74.8313 108.562 75.0503 108.952 75.44C109.342 75.8298 109.561 76.3585 109.561 76.9098C109.561 77.461 109.342 77.9897 108.952 78.3795C108.562 78.7693 108.034 78.9883 107.482 78.9883H61.8022C61.251 78.9883 60.7223 78.7693 60.3325 78.3795C59.9427 77.9897 59.7237 77.461 59.7237 76.9098C59.7237 76.3585 59.9427 75.8298 60.3325 75.44C60.7223 75.0503 61.251 74.8313 61.8022 74.8313V74.8313ZM61.8022 85.64H107.482C108.034 85.64 108.563 85.8591 108.952 86.2489C109.342 86.6388 109.561 87.1676 109.561 87.719C109.561 88.2704 109.342 88.7992 108.952 89.189C108.563 89.5789 108.034 89.7979 107.482 89.7979H61.8022C61.2509 89.7979 60.7221 89.5789 60.3322 89.189C59.9423 88.7992 59.7233 88.2704 59.7233 87.719C59.7233 87.1676 59.9423 86.6388 60.3322 86.2489C60.7221 85.8591 61.2509 85.64 61.8022 85.64V85.64ZM134.277 125.613C133.565 128.435 131.064 130.538 128.088 130.538H41.1964C38.2211 130.538 35.7199 128.434 35.0087 125.613C34.873 125.075 34.8045 124.523 34.8047 123.968V93.1243H58.9877C61.6589 93.1243 63.8118 95.3737 63.8118 98.1046V98.1414C63.8118 100.871 65.9896 103.076 68.6607 103.076H100.624C103.295 103.076 105.473 100.851 105.473 98.1202V98.1092C105.473 95.3783 107.626 93.1234 110.297 93.1234H134.48V123.969C134.48 124.536 134.409 125.087 134.277 125.613V125.613Z" fill="#DCE0E6"/>
<path fill-rule="evenodd" clip-rule="evenodd" d="M137.316 30.5913L131.04 33.0263C130.879 33.089 130.703 33.1049 130.533 33.0722C130.363 33.0395 130.206 32.9595 130.08 32.8414C129.953 32.7234 129.863 32.572 129.819 32.4048C129.774 32.2375 129.778 32.0612 129.83 31.8961L131.61 26.1926C129.231 23.4874 127.834 20.1887 127.834 16.6289C127.834 7.44475 137.131 0 148.601 0C160.067 0 169.365 7.44475 169.365 16.6289C169.365 25.8131 160.068 33.2579 148.6 33.2579C144.439 33.2579 140.565 32.2783 137.316 30.5913Z" fill="#DCE0E6"/>
<path d="M156.78 19.6313C158.226 19.6313 159.398 18.4732 159.398 17.0446C159.398 15.6161 158.226 14.458 156.78 14.458C155.334 14.458 154.162 15.6161 154.162 17.0446C154.162 18.4732 155.334 19.6313 156.78 19.6313Z" fill="white"/>
<path fill-rule="evenodd" clip-rule="evenodd" d="M143.039 19.3076H137.803L140.466 14.7812L143.039 19.3076ZM146.311 14.7812H150.891V19.3076H146.311V14.7812Z" fill="white"/>
</svg>
