<svg width="18" height="18" viewBox="0 0 18 18" fill="none" xmlns="http://www.w3.org/2000/svg">
<g clip-path="url(#clip0_590_420)">
<path d="M9.65348 11.3035L7.74848 9.42098L7.77098 9.39848C9.07598 7.94348 10.006 6.27098 10.5535 4.50098H12.751V3.00098H7.50098V1.50098H6.00098V3.00098H0.750977V4.49348H9.12848C8.62598 5.94098 7.83098 7.31348 6.75098 8.51348C6.05348 7.74098 5.47598 6.89348 5.01848 6.00098H3.51848C4.06598 7.22348 4.81598 8.37848 5.75348 9.42098L1.93598 13.186L3.00098 14.251L6.75098 10.501L9.08348 12.8335L9.65348 11.3035ZM13.876 7.50098H12.376L9.00098 16.501H10.501L11.341 14.251H14.9035L15.751 16.501H17.251L13.876 7.50098ZM11.911 12.751L13.126 9.50348L14.341 12.751H11.911Z" fill="white"/>
</g>
<defs>
<clipPath id="clip0_590_420">
<rect width="18" height="18" fill="white" transform="translate(0.000976562)"/>
</clipPath>
</defs>
</svg>
