<svg width="14" height="14" viewBox="0 0 14 14" fill="none" xmlns="http://www.w3.org/2000/svg">
<path d="M10.9375 3.38906C10.7188 2.91094 10.4078 2.48125 10.0109 2.11406C9.20469 1.36563 8.13438 0.953125 7 0.953125C5.86563 0.953125 4.79531 1.36563 3.98906 2.1125C3.59219 2.48125 3.28125 2.90938 3.0625 3.38906C2.83438 3.88906 2.71875 4.41875 2.71875 4.96563V5.3875C2.71875 5.48438 2.79687 5.5625 2.89375 5.5625H3.7375C3.83438 5.5625 3.9125 5.48438 3.9125 5.3875V4.96563C3.9125 3.41094 5.29688 2.14688 7 2.14688C8.70313 2.14688 10.0875 3.41094 10.0875 4.96563C10.0875 5.60313 9.86094 6.20313 9.43125 6.70313C9.00625 7.19844 8.40625 7.55313 7.74219 7.70313C7.3625 7.78906 7.02031 8.00313 6.77813 8.30938C6.53678 8.61458 6.40524 8.99216 6.40469 9.38125V9.87188C6.40469 9.96875 6.48281 10.0469 6.57969 10.0469H7.42344C7.52031 10.0469 7.59844 9.96875 7.59844 9.87188V9.38125C7.59844 9.13594 7.76875 8.92031 8.00469 8.86719C8.91719 8.66094 9.74531 8.16875 10.3375 7.48125C10.6359 7.13281 10.8688 6.74531 11.0297 6.325C11.1969 5.88906 11.2813 5.43125 11.2813 4.96563C11.2813 4.41875 11.1656 3.8875 10.9375 3.38906ZM7 11.2969C6.51719 11.2969 6.125 11.6891 6.125 12.1719C6.125 12.6547 6.51719 13.0469 7 13.0469C7.48281 13.0469 7.875 12.6547 7.875 12.1719C7.875 11.6891 7.48281 11.2969 7 11.2969Z" fill="black" fill-opacity="0.85"/>
</svg>
