<svg width="8" height="8" viewBox="0 0 8 8" fill="none" xmlns="http://www.w3.org/2000/svg">
<path d="M6.967 5.90078L4.21231 2.10312C4.11231 1.96563 3.90763 1.96563 3.80841 2.10312L1.05294 5.90078C1.04616 5.91012 1.0421 5.92116 1.0412 5.93266C1.04031 5.94417 1.04262 5.9557 1.04788 5.96598C1.05314 5.97625 1.06114 5.98487 1.071 5.99087C1.08085 5.99688 1.09218 6.00004 1.10372 6H1.68966C1.7295 6 1.767 5.98047 1.79044 5.94844L4.00997 2.88906L6.2295 5.94844C6.25294 5.98047 6.29044 6 6.33028 6H6.91622C6.967 6 6.99669 5.94219 6.967 5.90078Z" fill="#8C8C8C"/>
</svg>
